# xmcd CD database file
#
# Track frame offsets:
#	150
#	10192
#	24789
#	51161
#	110729
#	129409
#	156964
#	174375
#	190650
#	212426
#	237273
#	275436
#
# Disc length: 4012 seconds
#
# Revision: 0
# Processed by: cddbd v1.4PL0 Copyright (c) Steve Scherf et al.
# Submitted via: CDex 1.50beta9
#
DISCID=960faa0c
DTITLE=Ben Sidran - Anthology
DYEAR=2003
DGENRE=Jazz
TTITLE0=Piano Players
TTITLE1=Little Sherry
TTITLE2=On The Cool Side
TTITLE3=A Good Travel Agent
TTITLE4=Everything Happens To Me
TTITLE5=Walking With The Blues
TTITLE6=Too Hot To Touch
TTITLE7=Life's A Lesson (Blue Daniel)
TTITLE8=Turn to The Music
TTITLE9=I'm Back
TTITLE10=Si Me Voy (For Margarita Xirgu)
TTITLE11=Walk Pretty
EXTD=YEAR: 2003
EXTT0=
EXTT1=
EXTT2=
EXTT3=
EXTT4=
EXTT5=
EXTT6=
EXTT7=
EXTT8=
EXTT9=
EXTT10=
EXTT11=
PLAYORDER=
